# File created by Blade
# Date/Time:  Fri Jan 16 19:00:24 2015
# Frame Rate: 120.000 fps
#------------------------------------------------------
:FULLY-SPECIFIED
:DEGREES
3638
root 35.338240 35.298532 -14.751302 -19.370009 84.918796 -24.089308
Spine 25.059027 13.588388 -1.832979
Head -12.261945 -50.864399 41.593413
LeftShoulder 3.912029 -24.112898 3.328576
LeftArm -0.585309 28.441704 -80.262993
LeftForeArm 0.203527 -0.000000 -0.829936
LeftHand -3.563225 -0.000000 0.626014
LeftHandThumb1 -26.253704 0.000000 33.147579
RightShoulder 0.018175 5.002030 -2.080215
RightArm 84.414538 -28.454047 38.996845
RightForeArm -38.638901 0.000000 50.676318
RightHand -4.723083 -0.000000 -2.223111
RightHandThumb1 -24.326973 -0.000000 -32.862282
LeftUpLeg -27.328492 -14.692222 4.215035
LeftLeg 33.895982 -0.000000 -0.000000
LeftFoot -32.165389 25.297520 -16.820799
LeftToeBase 20.276495 -0.000000 -0.000000
RightUpLeg -15.735763 7.658921 9.610116
RightLeg 15.597337 -0.000000 -0.000000
RightFoot -17.340577 -18.082543 11.644341
RightToeBase 21.896252 -0.000000 -0.000000
3639
root 35.465416 35.293307 -14.785933 -13.456164 83.097812 -18.062685
Spine 24.800906 14.332471 -1.942199
Head -12.788881 -51.482017 42.145597
LeftShoulder 3.890750 -24.039276 3.215281
LeftArm -1.671265 27.545264 -79.806932
LeftForeArm 0.082243 -0.000000 -0.888650
LeftHand -4.095630 -0.000000 -0.064194
LeftHandThumb1 -26.253704 0.000000 33.147579
RightShoulder 0.086011 5.273251 -2.400074
RightArm 85.028065 -29.278602 38.853945
RightForeArm -38.939326 -0.000000 52.210002
RightHand -4.627101 0.000000 -2.193154
RightHandThumb1 -24.326973 -0.000000 -32.862282
LeftUpLeg -27.387475 -16.279054 4.930693
LeftLeg 32.469731 -0.000000 -0.000000
LeftFoot -31.234809 23.269772 -17.033337
LeftToeBase 21.463641 -0.000000 -0.000000
RightUpLeg -15.570511 8.851432 9.566538
RightLeg 16.037130 -0.000000 -0.000000
RightFoot -17.182118 -17.343988 11.352129
RightToeBase 21.899713 -0.000000 -0.000000
3640
root 35.597481 35.285828 -14.825335 -9.962351 81.150635 -14.420135
Spine 24.561189 15.127927 -2.045973
Head -13.330554 -51.991618 42.689779
LeftShoulder 3.791540 -23.844190 3.137804
LeftArm -2.762204 26.944050 -79.420390
LeftForeArm 0.904648 -0.000000 -0.633435
LeftHand -4.451967 -0.000000 -0.875144
LeftHandThumb1 -26.253704 0.000000 33.147579
RightShoulder 0.093403 5.477998 -2.652532
RightArm 85.811563 -30.061851 38.362966
RightForeArm -38.989726 -0.000000 53.704580
RightHand -4.733441 -0.000000 -2.317527
RightHandThumb1 -24.326973 -0.000000 -32.862282
LeftUpLeg -27.333360 -17.947676 5.707087
LeftLeg 30.969116 -0.000000 -0.000000
LeftFoot -30.181862 21.274036 -16.802550
LeftToeBase 22.391074 -0.000000 -0.000000
RightUpLeg -15.434767 10.009166 9.526274
RightLeg 16.596866 -0.000000 -0.000000
RightFoot -17.144809 -16.417459 11.359066
RightToeBase 21.697034 -0.000000 -0.000000
3641
root 35.733546 35.276844 -14.864831 -7.625259 79.124020 -11.874268
Spine 24.394927 15.968429 -2.158413
Head -13.895881 -52.491719 43.236585
LeftShoulder 3.645286 -23.446778 3.136864
LeftArm -3.639299 26.618631 -78.966436
LeftForeArm 1.484588 -0.000000 -0.091924
LeftHand -4.906145 -0.000000 -1.979003
LeftHandThumb1 -26.253704 0.000000 33.147579
RightShoulder 0.116723 5.693100 -2.962628
RightArm 86.425940 -30.891677 38.086677
RightForeArm -39.130073 -0.000000 55.173722
RightHand -4.640945 0.000000 -2.323016
RightHandThumb1 -24.326973 -0.000000 -32.862282
LeftUpLeg -27.224981 -19.580302 6.499951
LeftLeg 29.546520 -0.000000 -0.000000
LeftFoot -29.144203 18.900820 -16.604851
LeftToeBase 24.086254 -0.000000 -0.000000
RightUpLeg -15.245262 11.133526 9.481370
RightLeg 17.183518 -0.000000 -0.000000
RightFoot -17.117348 -15.476536 11.216583
RightToeBase 21.648254 -0.000000 -0.000000
3642
root 35.876576 35.269136 -14.911152 -5.845059 77.040110 -9.840717
Spine 24.238946 16.854115 -2.307431
Head -14.337898 -52.878394 43.691738
LeftShoulder 3.439277 -22.881834 3.142916
LeftArm -4.331567 26.406351 -78.456944
LeftForeArm 2.009997 -0.000000 0.573125
LeftHand -4.924320 -0.000000 -3.235332
LeftHandThumb1 -26.253704 0.000000 33.147579
RightShoulder 0.114212 5.790545 -3.200725
RightArm 87.116047 -31.626393 37.579687
RightForeArm -39.176597 -0.000000 56.612365
RightHand -4.595647 -0.000000 -2.511532
RightHandThumb1 -24.326973 -0.000000 -32.862282
LeftUpLeg -26.998217 -21.252814 7.252234
LeftLeg 28.070517 -0.000000 -0.000000
LeftFoot -28.106216 16.594179 -16.298687
LeftToeBase 25.582912 -0.000000 -0.000000
RightUpLeg -15.007931 12.356225 9.367395
RightLeg 17.768611 -0.000000 -0.000000
RightFoot -17.144612 -14.581436 11.135795
RightToeBase 21.585771 -0.000000 -0.000000
3643
root 36.019236 35.259906 -14.952766 -4.672400 74.897060 -8.396653
Spine 24.126662 17.754555 -2.427158
Head -14.814596 -53.347390 44.157604
LeftShoulder 3.196071 -22.465061 3.201754
LeftArm -5.176516 26.334561 -78.083960
LeftForeArm 2.361990 -0.000000 1.213650
LeftHand -5.037914 -0.000000 -3.834448
LeftHandThumb1 -26.253704 0.000000 33.147579
RightShoulder 0.087960 5.951985 -3.466522
RightArm 87.696000 -32.477139 37.134977
RightForeArm -39.104683 0.000000 58.095214
RightHand -4.703796 -0.000000 -2.787305
RightHandThumb1 -24.326973 -0.000000 -32.862282
LeftUpLeg -26.744686 -22.858256 7.992430
LeftLeg 26.681083 -0.000000 -0.000000
LeftFoot -27.022605 14.410292 -16.096463
LeftToeBase 26.808932 -0.000000 -0.000000
RightUpLeg -14.741385 13.651284 9.271987
RightLeg 18.341302 -0.000000 -0.000000
RightFoot -17.136790 -13.643269 10.974148
RightToeBase 21.400035 -0.000000 -0.000000
3644
root 36.159382 35.251646 -14.990233 -4.033126 72.722795 -7.486553
Spine 24.028404 18.644960 -2.471579
Head -15.285635 -53.813444 44.609793
LeftShoulder 2.835734 -21.870798 3.290701
LeftArm -5.782351 26.461247 -77.698839
LeftForeArm 3.087351 -0.000000 1.972354
LeftHand -4.743364 -0.000000 -4.609692
LeftHandThumb1 -26.253704 0.000000 33.147579
RightShoulder 0.020089 6.013055 -3.669937
RightArm 88.356861 -33.214737 36.542580
RightForeArm -38.960292 0.000000 59.525590
RightHand -4.618624 -0.000000 -2.755356
RightHandThumb1 -24.326973 -0.000000 -32.862282
LeftUpLeg -26.467065 -24.723873 8.906828
LeftLeg 25.302221 -0.000000 -0.000000
LeftFoot -26.060115 12.269653 -16.142466
LeftToeBase 28.056240 -0.000000 -0.000000
RightUpLeg -14.424716 15.091013 9.232813
RightLeg 18.807739 -0.000000 -0.000000
RightFoot -17.181711 -12.819740 10.965589
RightToeBase 22.179967 -0.000000 -0.000000
3645
root 36.316823 35.240021 -15.039517 -3.218830 70.414077 -6.370127
Spine 23.904079 20.066301 -2.475469
Head -15.938365 -54.561425 45.288872
LeftShoulder 3.001659 -21.226413 3.214930
LeftArm -6.419985 26.431629 -77.335804
LeftForeArm 3.683455 -0.000000 2.731914
LeftHand -4.360892 0.000000 -5.214329
LeftHandThumb1 -26.253704 0.000000 33.147579
RightShoulder -0.512642 5.890349 -3.813330
RightArm 89.118143 -33.893906 35.684521
RightForeArm -39.088158 -0.000000 60.923480
RightHand -4.667680 -0.000000 -2.964355
RightHandThumb1 -24.326973 -0.000000 -32.862282
LeftUpLeg -26.062727 -26.455590 9.628210
LeftLeg 23.927722 -0.000000 -0.000000
LeftFoot -25.078656 10.158232 -16.255497
LeftToeBase 28.860652 -0.000000 -0.000000
RightUpLeg -14.205057 16.102425 9.101552
RightLeg 19.509936 -0.000000 -0.000000
RightFoot -17.302441 -11.585838 10.785585
RightToeBase 22.716104 -0.000000 -0.000000
3646
root 36.463846 35.230190 -15.081061 -2.881757 68.158796 -5.736507
Spine 23.872368 21.451890 -2.320144
Head -16.769291 -55.297713 46.092152
LeftShoulder 3.165655 -20.776336 3.139857
LeftArm -7.176328 26.525988 -77.155530
LeftForeArm 4.169994 -0.000000 3.465466
LeftHand -4.008336 0.000000 -5.334635
LeftHandThumb1 -26.253704 0.000000 33.147579
RightShoulder -1.131511 5.724026 -3.950131
RightArm 89.901981 -34.496302 34.715551
RightForeArm -38.987103 -0.000000 62.350870
RightHand -4.752389 -0.000000 -3.244906
RightHandThumb1 -24.326973 -0.000000 -32.862282
LeftUpLeg -25.710028 -28.051814 10.367240
LeftLeg 22.776722 -0.000000 -0.000000
LeftFoot -24.035512 8.184921 -16.442308
LeftToeBase 30.514875 -0.000000 -0.000000
RightUpLeg -13.960493 17.054123 9.072031
RightLeg 20.147636 -0.000000 -0.000000
RightFoot -17.253593 -10.280801 10.647422
RightToeBase 22.856547 -0.000000 -0.000000
3647
root 36.612223 35.219307 -15.113377 -2.557918 65.725706 -4.971719
Spine 23.916079 22.420747 -2.494290
Head -16.846432 -55.603858 46.187786
LeftShoulder 2.684248 -20.310091 3.331825
LeftArm -7.898857 26.618320 -76.906935
LeftForeArm 3.931501 -0.000000 4.251250
LeftHand -3.668102 -0.000000 -5.946632
LeftHandThumb1 -26.253704 0.000000 33.147579
RightShoulder -1.105018 5.631564 -4.042261
RightArm 90.509711 -35.087006 33.995685
RightForeArm -39.150251 -0.000000 63.624940
RightHand -4.310626 0.000000 -3.235856
RightHandThumb1 -24.326973 -0.000000 -32.862282
LeftUpLeg -25.060377 -29.434085 10.859096
LeftLeg 21.663551 -0.000000 -0.000000
LeftFoot -22.965920 6.476430 -16.673933
LeftToeBase 31.453520 -0.000000 -0.000000
RightUpLeg -13.598715 18.137890 9.006787
RightLeg 20.828466 -0.000000 -0.000000
RightFoot -17.308333 -8.951545 10.512725
RightToeBase 23.325758 -0.000000 -0.000000
3648
root 36.752104 35.213153 -15.152796 -2.409533 63.240290 -4.442794
Spine 23.943054 23.445083 -2.571657
Head -17.060855 -55.902958 46.409641
LeftShoulder 2.264227 -19.871621 3.455933
LeftArm -8.672359 26.503847 -76.727922
LeftForeArm 4.064438 -0.000000 5.030558
LeftHand -3.129157 -0.000000 -5.911429
LeftHandThumb1 -26.253704 0.000000 33.147579
RightShoulder -1.159555 5.601605 -4.095567
RightArm 91.096460 -35.636063 33.028343
RightForeArm -39.232171 -0.000000 64.992939
RightHand -3.929462 -0.000000 -3.041308
RightHandThumb1 -24.326973 -0.000000 -32.862282
LeftUpLeg -24.334633 -30.701281 11.348372
LeftLeg 20.482962 -0.000000 -0.000000
LeftFoot -21.758786 4.957037 -17.163525
LeftToeBase 31.798354 -0.000000 -0.000000
RightUpLeg -13.264786 19.585128 8.961240
RightLeg 21.403610 -0.000000 -0.000000
RightFoot -17.398046 -7.986681 10.439822
RightToeBase 24.201747 -0.000000 -0.000000
3649
root 36.893894 35.210828 -15.191482 -2.109556 60.818190 -3.739850
Spine 24.030883 24.261627 -2.886844
Head -17.420415 -56.015429 46.797318
LeftShoulder 1.557427 -19.554021 3.645020
LeftArm -9.431177 26.396726 -76.515669
LeftForeArm 3.954079 -0.000000 5.800469
LeftHand -2.593427 -0.000000 -5.774646
LeftHandThumb1 -26.253704 0.000000 33.147579
RightShoulder -1.261766 5.513164 -4.062597
RightArm 91.845879 -36.241773 32.114999
RightForeArm -39.646379 -0.000000 66.218024
RightHand -3.469706 -0.000000 -2.814619
RightHandThumb1 -24.326973 -0.000000 -32.862282
LeftUpLeg -23.420054 -32.691942 11.903622
LeftLeg 18.859725 -0.000000 -0.000000
LeftFoot -20.408672 4.291036 -18.089163
LeftToeBase 31.523524 -0.000000 -0.000000
RightUpLeg -12.974359 20.655643 8.806792
RightLeg 22.036100 -0.000000 -0.000000
RightFoot -17.404661 -6.716895 10.187998
RightToeBase 24.652081 -0.000000 -0.000000
